<svg xmlns="http://www.w3.org/2000/svg" viewBox="0 0 700 220" role="img" aria-labelledby="title desc">
  <title id="title">Detergents Delivered</title>
  <desc id="desc">Official mark: a water drop fused with a map pin, plus the Detergents Delivered wordmark.</desc>
  <defs>
    <linearGradient id="pinFill" x1="100" y1="16" x2="100" y2="196" gradientUnits="userSpaceOnUse">
      <stop offset="0" stop-color="#5DE6F6"/>
      <stop offset="0.32" stop-color="#2E86F3"/>
      <stop offset="0.68" stop-color="#15408C"/>
      <stop offset="1" stop-color="#0A1F5C"/>
    </linearGradient>
    <style>text{font-family:Inter,ui-sans-serif,system-ui,sans-serif;}</style>
  </defs>
  <ellipse cx="100" cy="208" rx="30" ry="6" fill="#9ED0FF" opacity="0.4"/>
  <path d="M 100,16 C 108,24 144,56 150,92 C 155,122 138,150 100,196 C 62,150 45,122 50,92 C 56,56 92,24 100,16 Z" fill="url(#pinFill)"/>
  <path d="M 100.00,54.80 L 102.83,65.17 L 113.20,68.00 L 102.83,70.83 L 100.00,81.20 L 97.17,70.83 L 86.80,68.00 L 97.17,65.17 Z" fill="#FFFFFF"/>
  <path d="M 76,104 Q 100,118 124,104" fill="none" stroke="#FFFFFF" stroke-width="3.5" stroke-linecap="round"/>
  <circle cx="100" cy="152" r="14.5" fill="#FFFFFF"/>
  <text x="184" y="102" font-size="56" font-weight="700" fill="#0A1F5C">Detergents</text>
  <text x="184" y="166" font-size="56" font-weight="700" font-style="italic" fill="#2B7DEF">Delivered</text>
</svg>
